<svg xmlns="http://www.w3.org/2000/svg" xmlns:xlink="http://www.w3.org/1999/xlink" xml:space="preserve" id="katman_1" x="0" y="0" version="1.0" viewBox="0 0 420 294.2"><style>.st3{fill:#231f20}</style><path d="M264.3 41.8c11.2 0 18.3 9 18.4 18.4v123.9c-.1 10-8 18.4-18.5 18.4H148.4c-10.8 0-18.4-8.9-18.4-18.5V60.1c0-10.3 8.7-18.5 18.4-18.4z" style="fill:#4dc7e4"/><defs><path id="SVGID_1_" d="M90 40.2h240V254H90z"/></defs><clipPath id="SVGID_2_"><use xlink:href="#SVGID_1_" style="overflow:visible"/></clipPath><path d="M264.3 41.8c11.2 0 18.3 9 18.4 18.4v123.9c-.1 10-8 18.4-18.5 18.4H148.4c-10.8 0-18.4-8.9-18.4-18.5V60.1c0-10.3 8.7-18.5 18.4-18.4l115.9.1z" style="clip-path:url(#SVGID_2_);fill:none;stroke:#fff;stroke-width:.788;stroke-miterlimit:3.9999"/><path d="m217.5 100 42.9-20.2c.2-.1.3.2.4.2l-29.7 37 43.3 20.9c.2.1.4.3.1.5h-47.6l10.9 47.3-.3.3-31.1-38h-.4l-30.8 38.1c-.2.1-.3.1-.4 0l10.7-47.4-47.5-.1c-.2-.1-.2-.3-.2-.4l43.2-20.8.3-.3-29.7-37c-.1-.2.1-.3.2-.5l42.9 20.2 11.2-46h.3z" style="fill:#fff"/><path d="M90 254v-33.8h9l11.4 25.1 11.2-25.1h8.6V254h-7.4v-19.3l-8.6 19.3h-7.9l-8.6-19.2V254zM142.3 254h-8.7l15-33.8h10.7l15.1 33.8h-8.6l-3-6.8-17.6.1zm17.7-13.1-6.1-13.9-6 13.9zM177.9 254v-33.8h32.3v6.8h-24.5v6.7h21v6.7h-21v6.8h24.5v6.8z" class="st3"/><defs><path id="SVGID_3_" d="M90 40.2h240V254H90z"/></defs><clipPath id="SVGID_4_"><use xlink:href="#SVGID_3_" style="overflow:visible"/></clipPath><path d="M216.4 254v-33.8H244s1.8-.2 3.7 1.6c1.7 1.6 1.4 4 1.4 4v11.3s.3 2.1-1.7 3.9c-1.9 1.7-4.7 1.3-4.7 1.3l6.4 11.5h-8.4l-6.4-11.5h-10V254zm7.9-18.3h16.9V227h-16.9z" style="clip-path:url(#SVGID_4_);fill:#231f20"/><defs><path id="SVGID_5_" d="M90 40.2h240V254H90z"/></defs><clipPath id="SVGID_6_"><use xlink:href="#SVGID_5_" style="overflow:visible"/></clipPath><path d="M263.3 254h-2.7s-2.3 0-3.7-1.5c-1.5-1.6-1.5-3.5-1.5-3.5v-4.4h7.8v2.6H280v-6.8h-19.1s-2.4.2-3.8-1.3c-1.6-1.7-1.4-3.6-1.4-3.6v-10.1s0-1.7 1.1-3.2c1.6-2.2 4.2-2 4.2-2h21.9s1.8-.1 3.5 1.6c1.9 1.8 1.5 3.8 1.5 3.8v4H280V227h-16.7v6.8h19.1s2.2-.2 3.8 1.6 1.6 3.8 1.6 3.8v9.5s.3 1.9-1.2 3.6c-1.7 1.9-4 1.7-4 1.7z" style="clip-path:url(#SVGID_6_);fill:#231f20"/><path d="M295.3 254v-33.8h8v13.5l15.2-13.5h10.9l-18.2 15.7L330 254h-11.2l-15.5-15.4V254z" class="st3"/></svg>