<svg xmlns="http://www.w3.org/2000/svg" viewBox="0 0 1755.32 817.44"><defs><style>.a{fill:#bd0f72}</style></defs><path d="M0 625.68V0h555.23v625.68Zm134.9-121.81h285.29V121.81H134.9ZM1286 625.66V.02h469.32v121.4h-334.35v126.46h334.35v119.51h-334.35v136.88h334.35v121.39zM43.37 817.44C18.25 817.44 0 799.82 0 775.57s18.25-41.9 43.37-41.9 43.23 17.62 43.23 41.9-18.17 41.87-43.23 41.87m0-66.68c-13.59 0-23.44 10.45-23.44 24.81s9.85 24.76 23.44 24.76 23.32-10.4 23.32-24.76c-.01-14.57-9.59-24.81-23.32-24.81M141.34 733.67c-25.4 0-43.85 17.62-43.85 41.9s18.46 41.87 43.85 41.87c19.53 0 29.73-11.2 34.88-20.89l-16.71-7.92a20.66 20.66 0 0 1-18.17 11.71c-13.63 0-23.92-10.64-23.92-24.76 0-14.36 10.06-24.81 23.92-24.81a20.69 20.69 0 0 1 18.17 11.73l16.72-8c-5.02-9.7-15.11-20.83-34.89-20.83M192.42 815.93v-80.89h58.86v16.85h-39.31v14.6h38.44v16.85h-38.44v15.75h39.31v16.84zM328.71 815.94l-4.08-11.88h-33.84l-4.11 11.88h-22.26L294.88 735h25.67L351 815.94ZM296 787.21h23.39l-11.61-34.7ZM419.2 815.93l-36.25-49.61v49.61h-19.57v-80.89h20.61l34.79 47.28v-47.28h19.67v80.89zM568.1 815.93l-36.27-49.61v49.61h-19.55v-80.89h20.61l34.79 47.28v-47.28h19.7v80.89zM609.02 815.93v-80.89h58.83v16.85h-39.27v14.6H667v16.85h-38.42v15.75h39.27v16.84zM705.68 815.93v-64.04h-23.17v-16.85h65.79v16.85h-23.04v64.04zM831.35 815.93l-13.24-51.12-13.19 51.12h-21.2l-23.17-80.89h22.07l13.1 54.47v.02l14.91-54.49h14.99l14.85 54.49v-.02l13.05-54.47h22.18l-23.15 80.89zM924.06 817.44c-25.12 0-43.36-17.62-43.36-41.87s18.24-41.9 43.36-41.9 43.25 17.62 43.25 41.9-18.19 41.87-43.25 41.87m0-66.68c-13.59 0-23.44 10.45-23.44 24.81s9.85 24.76 23.44 24.76 23.3-10.4 23.3-24.76c.01-14.57-9.58-24.81-23.3-24.81M1026.68 815.94l-13.88-27.73h-12.3v27.73h-19.56V735h40.5c16.67 0 27.86 10.69 27.86 26.62 0 17.09-12.15 22.66-15.89 24l-1 .33 16.64 30Zm-25.14-44.6h17.73c6.66 0 11.15-3.94 11.15-9.78s-4.49-9.67-11.15-9.67h-17.73ZM1112.69 815.93l-22.09-31.69-6.5 8.1v23.59h-19.57v-80.89h19.57v35.72l26.73-35.72h23.95l-31.34 37.76 33.15 43.13zM1199.87 815.93v-80.89h58.83v16.85h-39.26v14.6h38.4v16.85h-38.4v15.75h39.26v16.84zM1331.87 815.93l-18.46-28.48-18.46 28.48h-23l28.13-41.51-26.31-39.38h23.04l16.6 26.7 16.46-26.7h23.15l-26.29 39.27 28.15 41.62zM1367 815.94V735h40.52c19.25 0 27.86 13.37 27.86 26.62s-8.61 26.51-27.86 26.51h-20.94v27.75Zm19.59-44.6h17.71c6.57 0 11.18-4 11.18-9.67 0-5.87-4.49-9.78-11.18-9.78h-17.71ZM1494.55 815.94l-13.9-27.73h-12.3v27.73h-19.59V735h40.55c16.64 0 27.84 10.69 27.84 26.62 0 17.09-12.15 22.66-15.87 24l-1 .33 16.62 30Zm-26.2-44.6h17.71c6.66 0 11.18-3.94 11.18-9.78s-4.51-9.67-11.18-9.67h-17.71ZM1533.84 815.93v-80.89h58.84v16.85h-39.3v14.6h38.42v16.85h-38.42v15.75h39.3v16.84zM1606.58 805c9.05 8.23 21 12.42 35.54 12.42 21 0 33.57-10 33.57-26.78 0-18.81-18.44-22.75-31.89-25.63-8.3-1.77-14.83-3.16-14.83-7.57 0-3 1.7-6.57 9.8-6.57a39 39 0 0 1 24 8.28l10.62-14.58c-8.54-7.06-19.72-10.78-32.4-10.78-22 0-32 13.17-32 25.41 0 19.37 18.28 23.11 31.63 25.85 8.43 1.73 15.09 3.1 15.09 7.83 0 4.58-4.8 7.44-12.5 7.44a38.23 38.23 0 0 1-26.4-10.4ZM1686.22 805c9 8.23 21 12.42 35.52 12.42 21 0 33.57-10 33.57-26.78 0-18.81-18.44-22.75-31.91-25.63-8.26-1.77-14.81-3.16-14.81-7.57 0-3 1.7-6.57 9.81-6.57a39 39 0 0 1 24 8.28l10.6-14.57c-8.54-7.06-19.72-10.78-32.38-10.78-22 0-32 13.17-32 25.41 0 19.37 18.28 23.11 31.65 25.85 8.41 1.73 15.07 3.1 15.07 7.83 0 4.58-4.78 7.44-12.53 7.44a38.1 38.1 0 0 1-26.36-10.4ZM1203.91.11h-135v397.33S807.35 59.49 760.25.11H637.32v625.57h135V227.5s215.28 279.93 308.93 398.18h122.62Z" class="a"/></svg>