<svg xmlns="http://www.w3.org/2000/svg" xml:space="preserve" style="enable-background:new 0 0 203.9 58.2" viewBox="0 0 203.9 58.2"><g transform="translate(28 -.637)"><defs><filter id="a" width="203.9" height="58.2" x="-28" y=".6" filterUnits="userSpaceOnUse"><feColorMatrix values="1 0 0 0 0 0 1 0 0 0 0 0 1 0 0 0 0 0 1 0"/></filter></defs><mask id="b" width="203.9" height="58.2" x="-28" y=".6" maskUnits="userSpaceOnUse"><g style="filter:url(#a)"><path d="M175.9.6H-28v58.2h203.9z" style="fill-rule:evenodd;clip-rule:evenodd;fill:#fff"/></g></mask><path d="M132.6 35.9h-17.9c-1.9 2.7-5.1 4.4-8.6 4.4-5.9 0-10.6-4.8-10.6-10.6 0-5.9 4.8-10.6 10.6-10.6 3.6 0 6.8 1.8 8.7 4.5h17.8zm-66.7-2.1c.5.7.9 1.4 1.1 2.2 1.3 4.1-.9 8.5-5 9.8-3.3 1.1-6.8-.2-8.7-2.9q-.75 1.05-1.8 1.8c-3.5 2.5-8.3 1.8-10.8-1.7-2-2.8-1.9-6.5 0-9.2-.8-.2-1.5-.6-2.2-1.1-3.5-2.5-4.2-7.4-1.7-10.8 2-2.8 5.6-3.8 8.7-2.8 0-.8.1-1.6.4-2.5 1.3-4.1 5.7-6.3 9.8-5 3.3 1.1 5.4 4.1 5.4 7.4.8-.3 1.6-.4 2.5-.4 4.3 0 7.8 3.5 7.8 7.8 0 3.5-2.3 6.4-5.5 7.4M1 40.3c-5.9 0-10.6-4.8-10.6-10.6 0-5.9 4.8-10.6 10.6-10.6 5.9 0 10.6 4.8 10.6 10.6.1 5.9-4.7 10.6-10.6 10.6m150.4-1.5V2h-18.8v15.9C128.1 7.7 117.9.7 106.1.7 94.4.7 84.3 7.6 79.7 17.6 75.1 7.6 65.1.6 53.4.6 41.9.6 31.9 7.3 27.2 17.1 22.5 7.4 12.6.6 1 .6c-16 0-29 13-29 29.1s13 29.1 29 29.1c11.5 0 21.5-6.7 26.2-16.5 4.7 9.8 14.6 16.5 26.2 16.5 11.7 0 21.8-6.9 26.4-16.9 4.6 10 14.7 16.9 26.4 16.9 11.8 0 22-7.1 26.5-17.2v15.9h43.2V38.8z" style="mask:url(#b);fill-rule:evenodd;clip-rule:evenodd;fill:#e50012"/></g><path d="M94.5 25.8c-.2-.8-1.1-1.2-1.8-.9-.6.2-1 .8-1 1.5l-7.1 2.3c-.1-.2-.2-.5-.4-.7l2.4-2.2c.3.1.6.2.9.1.6-.2.9-.8.7-1.4s-.8-.9-1.4-.7-.9.8-.7 1.4v.1l-2.4 2.2c-.2-.2-.4-.3-.6-.4l1.3-3c.3 0 .6-.1.8-.3.5-.4.5-1.1.1-1.6s-1.1-.5-1.6-.1-.5 1.1-.1 1.6l.1.1-1.3 3c-.2-.1-.5-.1-.7-.2v-7.5c.6-.2 1.1-.7 1.1-1.4 0-.8-.6-1.4-1.4-1.4s-1.4.6-1.4 1.4c0 .7.5 1.2 1.1 1.4v7.5c-.3 0-.5.1-.7.2l-1.3-3c.2-.2.3-.5.3-.8 0-.6-.5-1.1-1.1-1.1s-1.3.4-1.3 1 .5 1.1 1.1 1.1h.1l1.3 3c-.2.1-.4.3-.6.4l-2.5-2.2q.15-.45 0-.9c-.3-.6-.9-.8-1.5-.6s-.8.9-.6 1.5c.3.6.9.8 1.5.6 0 0 .1 0 .1-.1l2.4 2.2c-.2.2-.3.4-.4.7L71 26.3c0-.6-.4-1.2-1-1.4-.8-.2-1.6.2-1.8.9-.2.8.2 1.6.9 1.8.6.2 1.3-.1 1.7-.6l7.1 2.3c-.1.2-.1.5-.1.8l-3.3.3c-.1-.3-.4-.5-.7-.6-.6-.2-1.2.1-1.4.7s.1 1.2.7 1.4 1.2-.1 1.4-.7v-.1l3.2-.3c0 .3.1.5.2.7l-2.8 1.6c-.2-.2-.5-.3-.8-.2-.6.1-1.1.6-1 1.2s.6 1.1 1.2 1 1.1-.6 1-1.2v-.1l2.8-1.6c.2.2.3.4.5.6l-4.4 6c-.6-.2-1.3 0-1.7.5-.5.6-.3 1.5.3 2s1.6.3 2-.3c.4-.5.4-1.3-.1-1.8l4.3-6c.2.1.5.2.7.3l-.7 3.2c-.3 0-.6.2-.7.4-.4.5-.3 1.2.2 1.6s1.2.3 1.6-.2.3-1.2-.2-1.6c0 0-.1 0-.1-.1l.7-3.1h.8l.7 3.2c-.2.2-.4.4-.5.7-.1.6.3 1.2.9 1.3s1.2-.3 1.3-.9-.3-1.2-.9-1.3h-.1l-.7-3.1c.3-.1.5-.2.7-.3l4.4 6c-.4.5-.4 1.2 0 1.8.5.6 1.4.8 2 .3s.8-1.4.3-2c-.4-.5-1.1-.7-1.7-.5l-4.4-6c.2-.2.4-.4.5-.6l2.8 1.6c0 .3 0 .6.2.8.4.5 1.1.6 1.6.2s.6-1.1.2-1.6-1.1-.6-1.6-.2c0 0-.1 0-.1.1l-2.8-1.6c.1-.2.2-.5.2-.7l3.2.3c.1.3.3.5.5.7.5.3 1.2.1 1.5-.4s.1-1.2-.4-1.5-1.2-.1-1.5.4c0 0 0 .1-.1.1l-2.7-.4c0-.3 0-.5-.1-.8L92 27c.3.5 1 .8 1.7.6s1.1-1 .8-1.8" style="fill-rule:evenodd;clip-rule:evenodd;fill:#e50012" transform="translate(0 -1)"/></svg>